<svg width="766" height="1795" viewBox="0 0 766 1795" fill="none" xmlns="http://www.w3.org/2000/svg">
<g clip-path="url(#clip0_17_242)">
<path d="M766 0H0V1795H766V0Z" fill="#0E63F3"/>
<path d="M6.7449e-06 588.103C56.2366 563.358 86.0265 451.153 136.744 399.281C193.349 341.387 283.784 376.081 312.862 268.114C341.62 161.338 286.501 40.4542 263.422 -71.0707C245.298 -158.656 218.781 -233.068 192.58 -313.134C160.654 -410.697 151.675 -563.069 92.7374 -592.667C33.4303 -622.451 -10.9996 -479.156 -69.6004 -444.802C-126.656 -411.355 -198.294 -469.41 -243.329 -395.654C-288.409 -321.824 -291.735 -191.292 -292.934 -79.0342C-294.039 24.4044 -266.929 115.741 -249.846 214.11C-230.263 326.874 -234.675 467.003 -185.267 540.961C-135.542 615.396 -61.9292 615.35 6.7449e-06 588.103Z" fill="#0C5EE9"/>
<path d="M766 2344.07C825.027 2345.94 890.593 2363.08 937.628 2296.13C984.155 2229.91 984.992 2103.01 1006.79 2001.35C1027.39 1905.22 1070.74 1817.45 1062.18 1715.09C1053.64 1612.91 996.104 1557.42 962.792 1475.02C926.518 1385.28 911.545 1258.81 857.669 1209.17C801.682 1157.58 731.006 1160.32 674.342 1209.24C619.961 1256.18 594.419 1369.06 562.445 1464.02C534.955 1545.66 516.217 1631.19 501.169 1723.55C483.453 1832.29 448.079 1943.28 466.738 2051.46C485.706 2161.44 543.435 2231.94 598.065 2285.35C649.606 2335.75 707.89 2342.22 766 2344.07Z" fill="#1A6BF4"/>
</g>
<defs>
<clipPath id="clip0_17_242">
<rect width="766" height="1795" fill="white"/>
</clipPath>
</defs>
</svg>
